<svg width="80" height="80" viewBox="0 0 80 80" fill="none" xmlns="http://www.w3.org/2000/svg">
<path d="M0 40C0 17.9086 17.9086 0 40 0C62.0914 0 80 17.9086 80 40C80 62.0914 62.0914 80 40 80C17.9086 80 0 62.0914 0 40Z" fill="#DCFCE7"/>
<path d="M45.3332 52V49.3333C45.3332 47.9188 44.7713 46.5623 43.7711 45.5621C42.7709 44.5619 41.4143 44 39.9998 44H31.9998C30.5853 44 29.2288 44.5619 28.2286 45.5621C27.2284 46.5623 26.6665 47.9188 26.6665 49.3333V52" stroke="black" stroke-width="2.66667" stroke-linecap="round" stroke-linejoin="round"/>
<path d="M35.9998 38.6667C38.9454 38.6667 41.3332 36.2789 41.3332 33.3333C41.3332 30.3878 38.9454 28 35.9998 28C33.0543 28 30.6665 30.3878 30.6665 33.3333C30.6665 36.2789 33.0543 38.6667 35.9998 38.6667Z" stroke="black" stroke-width="2.66667" stroke-linecap="round" stroke-linejoin="round"/>
<path d="M53.3335 52V49.3333C53.3326 48.1516 52.9393 47.0037 52.2153 46.0698C51.4913 45.1358 50.4777 44.4688 49.3335 44.1733" stroke="black" stroke-width="2.66667" stroke-linecap="round" stroke-linejoin="round"/>
<path d="M45.3335 28.1733C46.4807 28.4671 47.4975 29.1343 48.2237 30.0698C48.9498 31.0052 49.344 32.1558 49.344 33.34C49.344 34.5242 48.9498 35.6748 48.2237 36.6103C47.4975 37.5457 46.4807 38.2129 45.3335 38.5067" stroke="black" stroke-width="2.66667" stroke-linecap="round" stroke-linejoin="round"/>
</svg>
