<svg width="80" height="80" viewBox="0 0 80 80" fill="none" xmlns="http://www.w3.org/2000/svg">
<path d="M0 40C0 17.9086 17.9086 0 40 0C62.0914 0 80 17.9086 80 40C80 62.0914 62.0914 80 40 80C17.9086 80 0 62.0914 0 40Z" fill="#F3E8FF"/>
<path d="M44.6362 41.1868L46.6562 52.5548C46.6788 52.6886 46.66 52.8262 46.6023 52.9491C46.5446 53.072 46.4508 53.1744 46.3334 53.2425C46.216 53.3106 46.0806 53.3413 45.9452 53.3304C45.8099 53.3195 45.6811 53.2675 45.5762 53.1814L40.8028 49.5988C40.5724 49.4266 40.2925 49.3336 40.0048 49.3336C39.7172 49.3336 39.4373 49.4266 39.2068 49.5988L34.4255 53.1801C34.3206 53.266 34.192 53.3179 34.0568 53.3288C33.9217 53.3398 33.7864 53.3092 33.669 53.2413C33.5517 53.1733 33.4579 53.0712 33.4 52.9485C33.3422 52.8259 33.3232 52.6885 33.3455 52.5548L35.3642 41.1868" stroke="black" stroke-width="2.66667" stroke-linecap="round" stroke-linejoin="round"/>
<path d="M40 42.6667C44.4183 42.6667 48 39.085 48 34.6667C48 30.2485 44.4183 26.6667 40 26.6667C35.5817 26.6667 32 30.2485 32 34.6667C32 39.085 35.5817 42.6667 40 42.6667Z" stroke="black" stroke-width="2.66667" stroke-linecap="round" stroke-linejoin="round"/>
</svg>
