<svg width="80" height="80" viewBox="0 0 80 80" fill="none" xmlns="http://www.w3.org/2000/svg">
<path d="M0 40C0 17.9086 17.9086 0 40 0C62.0914 0 80 17.9086 80 40C80 62.0914 62.0914 80 40 80C17.9086 80 0 62.0914 0 40Z" fill="#FFEDD5"/>
<path d="M49.3334 42.6667C51.3201 40.72 53.3334 38.3867 53.3334 35.3333C53.3334 33.3884 52.5608 31.5232 51.1855 30.1479C49.8103 28.7726 47.945 28 46.0001 28C43.6534 28 42.0001 28.6667 40.0001 30.6667C38.0001 28.6667 36.3467 28 34.0001 28C32.0552 28 30.1899 28.7726 28.8146 30.1479C27.4394 31.5232 26.6667 33.3884 26.6667 35.3333C26.6667 38.4 28.6667 40.7333 30.6667 42.6667L40.0001 52L49.3334 42.6667Z" stroke="black" stroke-width="2.66667" stroke-linecap="round" stroke-linejoin="round"/>
</svg>
