<svg width="80" height="80" viewBox="0 0 80 80" fill="none" xmlns="http://www.w3.org/2000/svg">
<path d="M0 40C0 17.9086 17.9086 0 40 0C62.0914 0 80 17.9086 80 40C80 62.0914 62.0914 80 40 80C17.9086 80 0 62.0914 0 40Z" fill="#DBEAFE"/>
<path d="M50.6668 41.3333C50.6668 47.9999 46.0002 51.3333 40.4535 53.2666C40.163 53.365 39.8475 53.3603 39.5602 53.2533C34.0002 51.3333 29.3335 47.9999 29.3335 41.3333V31.9999C29.3335 31.6463 29.474 31.3072 29.724 31.0571C29.9741 30.8071 30.3132 30.6666 30.6668 30.6666C33.3335 30.6666 36.6668 29.0666 38.9868 27.0399C39.2693 26.7986 39.6286 26.666 40.0002 26.666C40.3717 26.666 40.731 26.7986 41.0135 27.0399C43.3468 29.0799 46.6668 30.6666 49.3335 30.6666C49.6871 30.6666 50.0263 30.8071 50.2763 31.0571C50.5264 31.3072 50.6668 31.6463 50.6668 31.9999V41.3333Z" stroke="black" stroke-width="2.66667" stroke-linecap="round" stroke-linejoin="round"/>
</svg>
